<svg width="689" height="148" viewBox="0 0 689 148" fill="none" xmlns="http://www.w3.org/2000/svg">
<rect width="147.535" height="147.535" fill="#009EE0"/>
<path d="M105.256 113.269L73.7669 34.2656L42.2773 113.269L68.8292 96.4907L73.7665 76.2757L78.7036 96.4902L105.256 113.269Z" fill="white"/>
<path d="M221.846 56.3244V43.4593H253.814V82.152H242.313L240.364 72.9905C235.686 80.1377 228.181 83.7114 217.85 83.7114C207.779 83.7114 199.722 80.3976 193.679 73.7702C187.637 67.2727 184.615 58.501 184.615 47.4553C184.615 36.2796 187.767 27.443 194.069 20.9455C200.307 14.448 208.883 11.1992 219.799 11.1992C228.831 11.1992 236.335 13.4409 242.313 17.9241C248.356 22.4724 251.897 28.5476 252.936 36.1496H236.075C235.101 32.7709 233.217 30.1394 230.423 28.2552C227.629 26.3709 224.12 25.4288 219.897 25.4288C214.244 25.4288 209.793 27.378 206.544 31.2765C203.361 35.175 201.769 40.5679 201.769 47.4553C201.769 54.3426 203.426 59.7356 206.739 63.6341C210.118 67.5326 214.764 69.4818 220.676 69.4818C224.965 69.4818 228.636 68.2798 231.69 65.8757C234.808 63.4067 236.66 60.2229 237.245 56.3244H221.846Z" fill="black"/>
<path d="M327.547 82.152H310.101L306.008 70.0666H277.159L273.163 82.152H256.302L281.837 12.7586H301.427L327.547 82.152ZM285.736 44.4339L281.74 56.3244H301.33L297.334 44.4339C296.099 40.9253 294.15 35.0775 291.486 26.8907C288.042 37.4816 286.126 43.3294 285.736 44.4339Z" fill="black"/>
<path d="M354.978 83.7114C345.947 83.7114 338.67 81.2748 333.147 76.4017C327.624 71.6585 324.862 64.7711 324.862 55.7396V12.7586H341.334V55.9345C341.334 60.3528 342.503 63.7315 344.842 66.0706C347.246 68.3448 350.625 69.4818 354.978 69.4818C359.332 69.4818 362.71 68.3448 365.114 66.0706C367.518 63.7315 368.72 60.3528 368.72 55.9345V12.7586H385.192V55.7396C385.192 64.6412 382.495 71.5285 377.102 76.4017C371.774 81.2748 364.4 83.7114 354.978 83.7114Z" fill="black"/>
<path d="M387.944 12.7586H447.104V27.4755H425.76V82.152H409.191V27.4755H387.944V12.7586Z" fill="black"/>
<path d="M494.657 39.2684V12.7586H511.128V82.152H494.657V54.0827H466.782V82.152H450.311V12.7586H466.782V39.2684H494.657Z" fill="black"/>
<path d="M531.344 82.152H514.872V12.7586H531.344V82.152Z" fill="black"/>
<path d="M588.1 12.7586V27.4755H551.552V40.0481H584.787V53.8878H551.552V67.4351H588.003V82.152H535.081V12.7586H588.1Z" fill="black"/>
<path d="M647.557 64.9011L648.044 74.6473C648.109 77.7661 648.759 80.2677 649.994 82.152H633.035C631.996 80.2027 631.443 77.6687 631.378 74.5499L631.086 66.7529C630.956 62.9193 630.079 60.2879 628.454 58.8584C626.895 57.364 624.361 56.6168 620.852 56.6168H607.402V82.152H590.931V12.7586H623.776C631.898 12.7586 638.103 14.5779 642.392 18.2165C646.745 21.7902 648.922 26.6633 648.922 32.8359C648.922 40.8278 645.185 46.3182 637.713 49.3071C641.287 50.4766 643.756 52.2634 645.12 54.6675C646.55 57.0716 647.362 60.4828 647.557 64.9011ZM607.402 25.9161V44.239H621.924C625.108 44.239 627.577 43.4593 629.332 41.8999C631.086 40.2755 631.963 37.9689 631.963 34.9801C631.963 28.9374 628.519 25.9161 621.632 25.9161H607.402Z" fill="black"/>
<path d="M199.866 136.53C196.941 136.53 194.323 135.837 192.014 134.451C189.704 133.066 187.903 131.08 186.61 128.493C185.317 125.876 184.67 122.828 184.67 119.348C184.67 115.869 185.317 112.836 186.61 110.249C187.903 107.632 189.704 105.631 192.014 104.245C194.323 102.859 196.941 102.166 199.866 102.166C202.113 102.166 204.192 102.567 206.101 103.367C208.01 104.168 209.642 105.415 210.997 107.109C212.382 108.802 213.337 110.927 213.86 113.482H209.935C209.226 110.773 207.979 108.802 206.193 107.57C204.407 106.339 202.298 105.723 199.866 105.723C197.649 105.723 195.693 106.262 194 107.339C192.337 108.417 191.044 109.988 190.12 112.051C189.196 114.083 188.735 116.515 188.735 119.348C188.735 122.181 189.196 124.629 190.12 126.692C191.044 128.724 192.337 130.279 194 131.357C195.693 132.435 197.649 132.973 199.866 132.973C201.498 132.973 203.037 132.65 204.484 132.003C205.962 131.326 207.209 130.295 208.226 128.909C209.242 127.523 209.888 125.83 210.165 123.828H214.045C213.768 126.569 212.937 128.894 211.551 130.803C210.196 132.712 208.487 134.143 206.424 135.098C204.392 136.053 202.206 136.53 199.866 136.53Z" fill="#009EE0"/>
<path d="M247.27 136.53C244.129 136.53 241.358 135.822 238.956 134.405C236.585 132.958 234.753 130.941 233.46 128.355C232.166 125.737 231.52 122.735 231.52 119.348C231.52 115.961 232.166 112.974 233.46 110.388C234.753 107.771 236.585 105.754 238.956 104.337C241.358 102.89 244.129 102.166 247.27 102.166C250.41 102.166 253.166 102.89 255.537 104.337C257.939 105.754 259.786 107.771 261.08 110.388C262.373 112.974 263.02 115.961 263.02 119.348C263.02 122.735 262.373 125.737 261.08 128.355C259.786 130.941 257.939 132.958 255.537 134.405C253.166 135.822 250.41 136.53 247.27 136.53ZM247.27 132.973C249.61 132.973 251.657 132.419 253.413 131.311C255.168 130.202 256.523 128.632 257.477 126.6C258.462 124.537 258.955 122.119 258.955 119.348C258.955 116.577 258.462 114.175 257.477 112.143C256.523 110.08 255.168 108.494 253.413 107.386C251.657 106.277 249.61 105.723 247.27 105.723C244.929 105.723 242.882 106.277 241.127 107.386C239.372 108.494 238.001 110.08 237.016 112.143C236.062 114.175 235.584 116.577 235.584 119.348C235.584 122.119 236.062 124.537 237.016 126.6C238.001 128.632 239.372 130.202 241.127 131.311C242.882 132.419 244.929 132.973 247.27 132.973Z" fill="#009EE0"/>
<path d="M305.186 102.905H309.02V135.791H304.309L293.409 118.84C290.176 113.729 287.897 110.018 286.573 107.709C286.665 112.02 286.711 117.685 286.711 124.706V135.791H282.878V102.905H287.589L298.489 119.856C301.722 124.968 304.001 128.678 305.325 130.987C305.233 126.677 305.186 121.011 305.186 113.99V102.905Z" fill="#009EE0"/>
<path d="M352.588 102.905H356.422V135.791H351.71L340.81 118.84C337.577 113.729 335.299 110.018 333.974 107.709C334.067 112.02 334.113 117.685 334.113 124.706V135.791H330.279V102.905H334.991L345.891 119.856C349.124 124.968 351.402 128.678 352.727 130.987C352.634 126.677 352.588 121.011 352.588 113.99V102.905Z" fill="#009EE0"/>
<path d="M400.544 102.905V106.416H381.561V116.9H398.696V120.41H381.561V132.281H400.359V135.791H377.681V102.905H400.544Z" fill="#009EE0"/>
<path d="M433.3 136.53C430.374 136.53 427.757 135.837 425.448 134.451C423.138 133.066 421.337 131.08 420.044 128.493C418.751 125.876 418.104 122.828 418.104 119.348C418.104 115.869 418.751 112.836 420.044 110.249C421.337 107.632 423.138 105.631 425.448 104.245C427.757 102.859 430.374 102.166 433.3 102.166C435.547 102.166 437.626 102.567 439.535 103.367C441.444 104.168 443.076 105.415 444.431 107.109C445.816 108.802 446.771 110.927 447.294 113.482H443.368C442.66 110.773 441.413 108.802 439.627 107.57C437.841 106.339 435.732 105.723 433.3 105.723C431.083 105.723 429.127 106.262 427.434 107.339C425.771 108.417 424.478 109.988 423.554 112.051C422.63 114.083 422.168 116.515 422.168 119.348C422.168 122.181 422.63 124.629 423.554 126.692C424.478 128.724 425.771 130.279 427.434 131.357C429.127 132.435 431.083 132.973 433.3 132.973C434.932 132.973 436.471 132.65 437.918 132.003C439.396 131.326 440.643 130.295 441.66 128.909C442.676 127.523 443.322 125.83 443.599 123.828H447.479C447.202 126.569 446.371 128.894 444.985 130.803C443.63 132.712 441.921 134.143 439.858 135.098C437.826 136.053 435.64 136.53 433.3 136.53Z" fill="#009EE0"/>
<path d="M461.791 102.905H488.164V106.416H476.986V135.791H472.968V106.416H461.791V102.905Z" fill="#009EE0"/>
<path d="M511.226 135.791H507.347V102.905H511.226V135.791Z" fill="#009EE0"/>
<path d="M562.58 119.348C562.58 121.935 562.196 124.306 561.426 126.461C560.656 128.616 559.548 130.464 558.1 132.003L562.35 136.484L559.994 138.839L555.514 134.128C552.989 135.729 550.095 136.53 546.831 136.53C543.69 136.53 540.919 135.822 538.517 134.405C536.146 132.958 534.314 130.941 533.021 128.355C531.727 125.737 531.081 122.735 531.081 119.348C531.081 115.961 531.727 112.974 533.021 110.388C534.314 107.771 536.146 105.754 538.517 104.337C540.919 102.89 543.69 102.166 546.831 102.166C549.971 102.166 552.727 102.89 555.098 104.337C557.5 105.754 559.347 107.771 560.641 110.388C561.934 112.974 562.58 115.961 562.58 119.348ZM546.831 132.973C549.14 132.973 551.157 132.435 552.881 131.357L548.724 126.969L551.08 124.614L555.421 129.186C556.438 127.985 557.207 126.553 557.731 124.891C558.254 123.228 558.516 121.38 558.516 119.348C558.516 116.577 558.023 114.175 557.038 112.143C556.083 110.08 554.729 108.494 552.974 107.386C551.218 106.277 549.171 105.723 546.831 105.723C544.49 105.723 542.443 106.277 540.688 107.386C538.933 108.494 537.562 110.08 536.577 112.143C535.622 114.175 535.145 116.577 535.145 119.348C535.145 122.119 535.622 124.537 536.577 126.6C537.562 128.632 538.933 130.202 540.688 131.311C542.443 132.419 544.49 132.973 546.831 132.973Z" fill="#009EE0"/>
<path d="M594.91 136.484C592.169 136.484 589.829 135.991 587.889 135.006C585.98 133.99 584.517 132.527 583.501 130.618C582.485 128.678 581.977 126.338 581.977 123.597V102.905H585.857V123.551C585.857 126.723 586.627 129.078 588.166 130.618C589.736 132.157 591.984 132.927 594.91 132.927C597.835 132.927 600.067 132.157 601.607 130.618C603.177 129.078 603.962 126.723 603.962 123.551V102.905H607.842V123.597C607.842 126.338 607.334 128.678 606.318 130.618C605.302 132.527 603.824 133.99 601.884 135.006C599.975 135.991 597.65 136.484 594.91 136.484Z" fill="#009EE0"/>
<path d="M651.485 102.905V106.416H632.502V116.9H649.638V120.41H632.502V132.281H651.301V135.791H628.623V102.905H651.485Z" fill="#009EE0"/>
</svg>
